<svg width="121" height="88" viewBox="0 0 121 88" fill="none" xmlns="http://www.w3.org/2000/svg">
<path d="M42.4179 86C47.0088 79.7812 59.7297 65.1679 69.9633 70.0087C115.038 91.3305 119.576 48.6865 118.794 42.0237C117.385 30.03 111.699 23.8118 102.517 20.7023C82.4839 13.9179 72.4674 36.6933 88.7442 32.6955C105.021 28.6977 71.2153 6.04337 68.7112 14.039C66.2071 22.0346 79.9701 2.64306 63.7029 2.04589C27.3931 0.712943 15.734 28.8509 22.3848 30.0306C29.8972 31.363 18.6454 7.08354 7.36009 24.7001C-11.4209 54.0174 24.889 78.0044 28.6452 68.6762C32.4014 59.3479 18.6287 56.0584 24.889 70.7171C32.5912 88.752 51.1823 68.0516 52.4344 66.719" stroke="#E7A0CC" stroke-width="3.65217"/>
</svg>
