<svg width="115" height="91" viewBox="0 0 115 91" fill="none" xmlns="http://www.w3.org/2000/svg">
<path d="M66.8523 88.432C41.9489 77.5129 53.8223 45.3367 84.7317 71.7072C104.335 88.432 122.789 49.9966 102.611 49.9966C88.9451 49.9966 100.695 66.4712 110.848 54.8496C118.958 32.3088 93.1605 29.4992 91.6918 34.9907C90.5133 39.3975 107.933 40.2801 101.757 30.5158C80.0703 -3.76921 42.0994 23.2514 57.9764 32.0537C64.4258 35.6292 70.6508 21.8039 63.7236 15.387C14.3002 -30.3961 -26.8862 56.1272 28.4117 53.8918M28.4117 53.8918C27.305 48.6131 30.6076 42.6272 34.7736 41.9461C37.4791 41.5039 42.9072 51.6574 28.4117 53.8918ZM28.4117 53.8918C28.7522 57.2548 33.8286 63.6823 49.7157 60.9749" stroke="#E7A0CC" stroke-width="4"/>
</svg>
